<svg width="25" height="24" viewBox="0 0 25 24" fill="none" xmlns="http://www.w3.org/2000/svg">
<path fill-rule="evenodd" clip-rule="evenodd" d="M11.8361 1.21065C12.1972 0.929784 12.7028 0.929784 13.064 1.21065L22.064 8.21065C22.3075 8.4001 22.45 8.69141 22.45 9V20C22.45 20.7957 22.1339 21.5587 21.5713 22.1213C21.0087 22.6839 20.2457 23 19.45 23H5.45001C4.65436 23 3.8913 22.6839 3.32869 22.1213C2.76608 21.5587 2.45001 20.7957 2.45001 20V9C2.45001 8.69141 2.59249 8.4001 2.83607 8.21065L11.8361 1.21065ZM4.45001 9.48908V20C4.45001 20.2652 4.55537 20.5196 4.74291 20.7071C4.93044 20.8946 5.1848 21 5.45001 21H19.45C19.7152 21 19.9696 20.8946 20.1571 20.7071C20.3447 20.5196 20.45 20.2652 20.45 20V9.48908L12.45 3.26686L4.45001 9.48908Z" fill="#484C52"/>
<path fill-rule="evenodd" clip-rule="evenodd" d="M8.45001 12C8.45001 11.4477 8.89773 11 9.45001 11H15.45C16.0023 11 16.45 11.4477 16.45 12V22C16.45 22.5523 16.0023 23 15.45 23C14.8977 23 14.45 22.5523 14.45 22V13H10.45V22C10.45 22.5523 10.0023 23 9.45001 23C8.89773 23 8.45001 22.5523 8.45001 22V12Z" fill="#484C52"/>
</svg>
