<svg width="25" height="24" viewBox="0 0 25 24" fill="none" xmlns="http://www.w3.org/2000/svg">
<path fill-rule="evenodd" clip-rule="evenodd" d="M9.41651 2.43004C9.6374 2.93622 9.40612 3.52564 8.89994 3.74653C7.55253 4.33451 6.36967 5.24362 5.45478 6.39435C4.53988 7.54509 3.92081 8.90243 3.65167 10.3477C3.38254 11.793 3.47155 13.2822 3.91091 14.6851C4.35027 16.088 5.12661 17.3619 6.17205 18.3955C7.2175 19.4291 8.50022 20.1908 9.90807 20.6141C11.3159 21.0375 12.806 21.1095 14.2481 20.8238C15.6902 20.5382 17.0404 19.9037 18.1806 18.9757C19.3208 18.0477 20.2164 16.8546 20.7889 15.5005C21.004 14.9919 21.5908 14.7539 22.0994 14.969C22.6081 15.1841 22.8461 15.7708 22.631 16.2795C21.9312 17.9344 20.8367 19.3927 19.4431 20.5269C18.0495 21.6611 16.3993 22.4366 14.6367 22.7857C12.8741 23.1348 11.0529 23.0468 9.33218 22.5294C7.61147 22.0121 6.0437 21.081 4.76594 19.8178C3.48817 18.5545 2.53931 16.9975 2.00231 15.2828C1.46532 13.5681 1.35653 11.748 1.68547 9.98156C2.01441 8.21512 2.77106 6.55615 3.88927 5.1497C5.00747 3.74324 6.45319 2.63211 8.10002 1.91346C8.6062 1.69257 9.19562 1.92385 9.41651 2.43004Z" fill="#484C52"/>
<path fill-rule="evenodd" clip-rule="evenodd" d="M11.7929 1.29289C11.9804 1.10536 12.2348 1 12.5 1C13.9445 1 15.3749 1.28452 16.7095 1.83733C18.0441 2.39013 19.2567 3.20038 20.2782 4.22183C21.2996 5.24327 22.1099 6.4559 22.6627 7.79048C23.2155 9.12506 23.5 10.5555 23.5 12C23.5 12.5523 23.0523 13 22.5 13H12.5C11.9477 13 11.5 12.5523 11.5 12V2C11.5 1.73478 11.6054 1.48043 11.7929 1.29289ZM13.5 3.05573V11H21.4443C21.3505 10.1614 21.1391 9.33849 20.8149 8.55585C20.3626 7.46392 19.6997 6.47177 18.864 5.63604C18.0282 4.80031 17.0361 4.13738 15.9442 3.68508C15.1615 3.3609 14.3386 3.14949 13.5 3.05573Z" fill="#484C52"/>
</svg>
