<?xml version="1.0" encoding="UTF-8"?>
<svg version="1.1" xmlns="http://www.w3.org/2000/svg" width="26" height="26">
<path d="M0 0 C3.78653897 2.16373655 4.73976724 4.58988761 6.625 8.5 C6.625 9.16 6.625 9.82 6.625 10.5 C7.945 11.16 9.265 11.82 10.625 12.5 C10.875 14.8125 10.875 14.8125 10.625 17.5 C8.34597649 20.27446341 5.85337195 20.79295304 2.4375 21.3125 C-2.34479715 21.70838553 -6.85319274 21.1347337 -11.375 19.5 C-13.375 17.5 -13.375 17.5 -13.5 14.875 C-13.45875 14.09125 -13.4175 13.3075 -13.375 12.5 C-12.75625 12.273125 -12.1375 12.04625 -11.5 11.8125 C-8.70711153 10.08748065 -8.44254035 8.56028234 -7.375 5.5 C-3.92435622 -0.82618026 -3.92435622 -0.82618026 0 0 Z M-4.375 3.5 C-3.375 6.5 -3.375 6.5 -3.375 6.5 Z M0.625 3.5 C1.625 6.5 1.625 6.5 1.625 6.5 Z M-6.375 7.5 C-6.705 8.49 -7.035 9.48 -7.375 10.5 C-5.89 11.49 -5.89 11.49 -4.375 12.5 C-4.1875 15.625 -4.1875 15.625 -4.375 18.5 C-2.725 18.83 -1.075 19.16 0.625 19.5 C1.82600587 17.50835039 1.82600587 17.50835039 1.5 15.0625 C1.625 12.5 1.625 12.5 3.125 10.6875 C3.62 10.295625 4.115 9.90375 4.625 9.5 C3.965 8.84 3.305 8.18 2.625 7.5 C2.295 7.83 1.965 8.16 1.625 8.5 C-3.90441176 8.73529412 -3.90441176 8.73529412 -6.375 7.5 Z " fill="#484C53" transform="translate(14.375,2.5)"/>
</svg>
