<svg width="25" height="24" viewBox="0 0 25 24" fill="none" xmlns="http://www.w3.org/2000/svg">
<path fill-rule="evenodd" clip-rule="evenodd" d="M11.9 4C8.034 4 4.89999 7.13401 4.89999 11C4.89999 14.866 8.034 18 11.9 18C15.766 18 18.9 14.866 18.9 11C18.9 7.13401 15.766 4 11.9 4ZM2.89999 11C2.89999 6.02944 6.92943 2 11.9 2C16.8706 2 20.9 6.02944 20.9 11C20.9 15.9706 16.8706 20 11.9 20C6.92943 20 2.89999 15.9706 2.89999 11Z" fill="#484C52"/>
<path fill-rule="evenodd" clip-rule="evenodd" d="M16.8429 15.9429C17.2334 15.5524 17.8666 15.5524 18.2571 15.9429L22.6071 20.2929C22.9976 20.6834 22.9976 21.3166 22.6071 21.7071C22.2166 22.0976 21.5834 22.0976 21.1929 21.7071L16.8429 17.3571C16.4524 16.9666 16.4524 16.3334 16.8429 15.9429Z" fill="#484C52"/>
</svg>
